<svg width="66" height="22" viewBox="0 0 66 22" fill="none" xmlns="http://www.w3.org/2000/svg">
<path d="M25.0598 0.37486L16.4203 20.9903H10.7815L6.53297 4.53969C6.27142 3.5252 6.04789 3.15601 5.26363 2.72521C3.97895 2.03066 1.86579 1.37917 0 0.97337L0.130582 0.374988H9.20288C10.3599 0.374988 11.4002 1.14675 11.6618 2.47719L13.9082 14.409L19.4569 0.374988L25.0598 0.37486ZM47.1473 14.2565C47.1723 8.81848 39.6227 8.52251 39.677 6.08966C39.6917 5.34703 40.3955 4.56122 41.9369 4.36283C42.7024 4.261 44.8088 4.18636 47.1963 5.28245L48.132 0.912784C46.8475 0.44653 45.1963 0 43.1441 0C37.8733 0 34.1627 2.80358 34.1314 6.81502C34.0969 9.78141 36.7788 11.4368 38.8017 12.4248C40.8789 13.4356 41.5734 14.0811 41.5661 14.9877C41.5525 16.3714 39.9087 16.976 38.3755 17.0032C35.6936 17.045 34.1381 16.2785 32.8958 15.7L31.9303 20.2198C33.1747 20.7912 35.4785 21.2872 37.8627 21.3165C43.4649 21.3162 47.1297 18.5425 47.1473 14.2565ZM61.0665 20.9904H66L61.6952 0.374988H57.1408C56.1174 0.374988 55.2546 0.971825 54.8702 1.88616L46.8726 20.9904H52.4704L53.5816 17.9117H60.4242L61.0665 20.9904ZM55.1157 13.6862L57.924 5.94541L59.5396 13.6862H55.1157ZM32.681 0.37486L28.2685 20.9903H22.9345L27.348 0.37486H32.681Z" fill="#1A2ADF"/>
</svg>
